<svg xmlns="http://www.w3.org/2000/svg" viewBox="0 0 1000 1000" width="50" height="50">
	<style>
		tspan { white-space:pre }
		.shp0 { fill: #727376 } 
		.shp1 { fill: #f47d35 } 
	</style>
	<path id="Layer" class="shp0" d="M809,203c-122,-122 -298,-157 -451,-104l411,410l143,-143c-21,-60 -55,-116 -103,-163z" />
	<path id="Layer" class="shp0" d="M937,504l-350,350l67,67c56,-21 109,-55 155,-100c87,-87 130,-202 128,-317z" />
	<path id="Layer" class="shp1" d="M63,520l350,-350l-67,-67c-57,21 -110,55 -155,100c-87,87 -130,203 -128,317zM521,279l-0.5,0.5l0.5,0.5zM520.5,279.5l-26.5,-26.5l-140,140l239,239l-123,123l-239,-239l-143,143c21,59 55,115 103,163c122,122 298,156 451,104l-145,-145l149,-149l-239,-239zM811,820l-2,2v0v0z" />
</svg>