<svg xmlns="http://www.w3.org/2000/svg" viewBox="0 0 3792 1125" width="150" height="45">
	<style>
		tspan { white-space:pre }
		.shp0 { fill: #f47d35 } 
		.shp1 { fill: #727376 } 
	</style>
	<g id="Layer_x0020_1">
		<path id="Layer" class="shp0" d="M10,447l350,-350l-67,-67c-57,21 -110,55 -155,100c-87,87 -130,203 -128,317zM468,206l-0.5,0.5l0.5,0.5zM467.5,206.5l-26.5,-26.5l-140,140l239,239l-123,123l-239,-239l-143,143c21,59 55,115 103,163c122,122 298,156 451,104l-145,-145l149,-149l-239,-239zM758,747l-2,2v0v0z" />
		<path id="Layer" class="shp0" d="M2721,970c-1,-4 0,-6 3,-7c3,-1 5,-1 7,0c2,1 3,6 4,15c1,9 4,10 9,4c5,-6 9,-10 13,-12c4,-2 6,-2 8,1c2,3 3,9 3,17c0,8 0,10 2,6c1,-4 2,-8 3,-11c1,-3 2,-6 4,-9c2,-3 4,-6 7,-8c3,-2 6,-2 10,1c3,2 7,3 12,2l1,-4c1,-5 1,-8 -1,-8c-2,0 -1,-1 1,-3c3,-2 5,-4 6,-4c2,-1 4,-1 6,0c2,0 3,3 2,7c-1,3 -1,6 -2,10c5,-1 5,-1 0,1c0,2 -1,4 -1,6c-1,7 -2,12 -3,16c-1,4 -2,8 -4,11c-2,3 -3,5 -5,5c-2,0 -3,1 -4,0c-1,0 -1,-2 -1,-6c0,-3 1,-9 2,-16c1,-5 1,-10 2,-14c-2,1 -5,1 -7,1c-6,1 -10,3 -11,7c-2,4 -3,7 -3,11c-1,3 -3,8 -5,15c-3,6 -5,10 -7,12c-2,2 -3,2 -4,2c-1,-1 -3,-2 -5,-5c-2,-3 -3,-8 -4,-16c0,-7 -2,-10 -4,-9c-2,2 -6,6 -12,14c-5,8 -9,12 -11,12c-2,0 -3,-1 -5,-2c-1,-2 -1,-5 -1,-8c1,-4 1,-8 0,-12c-1,-4 -1,-7 -2,-8c-1,-2 -1,-3 -2,-5c-1,-1 -1,-4 -2,-8zM2828,910c2,1 3,4 4,9c1,5 3,9 7,14c4,4 8,8 12,10c4,2 8,4 12,5c4,1 3,1 0,1c-4,0 -7,-1 -11,-3c-4,-2 -8,-5 -13,-9c-5,-4 -8,-7 -10,-9c-2,-2 -4,-3 -4,-3c-1,0 -1,0 -2,0c-1,0 -2,-1 -4,-2c-2,-1 -3,-3 -3,-5c0,-2 1,-4 2,-5c1,-1 2,-2 4,-3c2,-1 4,0 6,1zM2837,964c2,-12 4,-17 7,-18c3,0 5,1 7,3c2,2 2,5 1,8c-1,3 -1,5 0,5c1,0 3,-1 5,-3c2,-2 4,-3 6,-4c2,-1 3,-2 5,-2c1,0 4,0 7,0c4,1 7,2 10,3c3,2 7,1 12,-1c5,-2 4,-2 -1,2c-6,3 -12,5 -19,6c-6,1 -11,2 -15,4c-3,2 -6,4 -8,7c-2,2 -4,6 -6,11c-2,5 -3,9 -3,13c-1,3 -1,6 -2,8c-1,2 -2,3 -5,4c-3,0 -4,0 -6,-2c-1,-2 -1,-3 -1,-4c0,-1 1,-5 2,-12c1,-7 3,-16 4,-28zM2954,898c3,-5 5,-8 7,-7c2,1 4,2 4,3c0,2 -2,10 -8,25c-6,15 -9,29 -11,42c-2,13 -2,20 -1,21c1,1 3,2 5,1c2,-1 8,-5 18,-13c0,-1 0,-2 -1,-3c0,-3 0,-7 1,-12c1,-4 3,-8 5,-11c2,-3 4,-6 8,-9c3,-3 7,-5 12,-7c5,-1 9,0 10,2c1,2 2,5 3,8c0,3 -1,7 -4,9c-3,3 -7,6 -12,9c-1,1 -3,1 -4,1c-1,0 -2,0 -2,0l-1,1c-1,0 -2,0 -3,0c0,1 -1,2 -1,3h1c0.67,-0.67 1.33,-1.33 2,-2l-3,4c0,1 0,1 0,2c0,2 1,4 3,6c2,2 4,3 6,3c2,0 4,0 6,-1c2,-1 6,-3 11,-6c5,-3 9,-6 11,-8c2,-2 4,-5 6,-7c0.24,-0.24 0.46,-0.46 0.64,-0.64c0.05,0.34 0.1,0.69 0.16,1.03c-1.05,1.99 -2.92,4.8 -4.8,7.61c-2,3 -4,6 -7,9c-3,3 -5,5 -7,7c-2,2 -4,3 -8,5c-3,2 -7,2 -10,2c-3,0 -6,-1 -8,-1c-2,-1 -3,-2 -5,-3c-2,-1 -3,-3 -4,-5v-1c-2,2 -4,5 -6,7c-2,3 -5,6 -9,9c-4,3 -7,4 -10,5c-3,1 -5,0 -7,-1c-2,-1 -3,-3 -5,-5c-1,-2 -2,-6 -2,-12c0,-6 2,-16 5,-30c3,-14 6,-24 8,-31c2,-7 5,-13 8,-18zM3022.64,951.36c-0.18,-1.17 -0.38,-2.3 -0.64,-3.36c0,-4 1,-12 3,-22c3,-10 5,-18 7,-24c2,-6 5,-15 8,-27c3,-12 5,-18 6,-20c1,-2 2,-4 3,-6l3,3c1,-1 2,-1 4,-1c2,0 4,1 6,2c2,1 2,4 0,7c-2,3 -4,8 -7,14c-2,6 -5,14 -8,24c-3,10 -4,16 -3,19c1,3 3,5 5,6c2,2 6,2 11,1c1.65,-0.33 3.74,-0.66 6.26,-1.03c-1.15,0.34 -2.23,0.68 -3.26,1.03c-5,2 -7,5 -5,9c2,5 4,8 4,10c1,2 1,5 1,8c0,3 -1,6 -3,9c-2,3 -4,6 -6,9c-2,3 -4,4 -7,5c-2,1 -5,1 -8,1c-3,0 -6,-2 -8,-4c-2,-2 -4,-5 -6,-10c-1.31,-2.63 -1.76,-5.68 -2.2,-8.61c0.07,-0.13 0.14,-0.27 0.2,-0.39c0.88,-1.76 0.99,-1.97 -0.36,-0.64zM2995,940c-1,-1 -2,0 -4,1c-2,1 -4,3 -4,4c-1,2 -1,3 0,3c1,1 2,0 4,-1c2,-1 4,-3 5,-4c1,-1 1,-3 0,-4zM3066.26,922.97c5.57,-1.66 12.62,-3.32 21.74,-4.97c4,-1 6,-2 7,-2c-1.51,0.75 -3.59,2.08 -5.38,3.54c-0.82,0.15 -1.7,0.3 -2.62,0.46c-8.71,1.34 -15.62,2.23 -20.74,2.97zM3097,918c1,-1 3,-1 4,-2c5,-1 9,0 10,2c1,2 2,5 3,8c0,3 -1,7 -4,9c-3,3 -7,6 -12,9c-1,1 -3,1 -4,1c-1,0 -2,0 -3,0c-1,0 -2,0 -3,0c-1,3 -2,5 -1,7c0,2 1,4 3,6c2,2 4,3 6,3c2,0 4,0 6,-1c2,-1 6,-3 11,-6c5,-3 9,-6 11,-8c2,-2 4,-5 6,-7c2,-2 2,-2 1,0c-1,2 -3,5 -5,8c-2,3 -4,6 -7,9c-3,3 -5,5 -7,7c-2,2 -4,3 -8,5c-3,2 -7,2 -10,2c-3,0 -6,-1 -8,-1c-2,-1 -3,-2 -5,-3c-2,-1 -3,-3 -4,-5c-1,-2 -2,-5 -2,-8c0,-3 0,-7 1,-12c1,-4 3,-8 4,-11c2,-3 4,-6 8,-9c0.49,-0.49 1.04,-0.98 1.62,-1.46c4.51,-0.83 7.38,-1.54 7.38,-1.54zM3045,938c-3,-3 -5,-2 -6,0c-2,3 -2,6 -2,9c0,3 0,5 1,8c0,2 1,5 3,7c2,2 3,3 6,3c2,0 4,-1 5,-3c1,-2 2,-4 3,-7c0,-3 0,-5 -2,-8c-2,-3 -4,-6 -6,-8zM3102,928c-1,-1 -2,0 -4,1c-2,1 -4,3 -4,4c-1,2 -1,3 0,3c1,1 2,0 4,-1c2,-1 4,-3 5,-4c1,-1 1,-3 0,-4zM3141,915c2,-1 4,-1 7,0c3,1 4,3 2,6c-1,3 -3,9 -6,16c-3,7 -3,9 0,6c2,-4 5,-7 9,-11c3,-4 6,-6 8,-7c2,-1 3,-2 5,-3c2,-1 4,-1 7,0c3,0 5,2 7,5c2,3 4,9 5,16c1,8 3,11 7,11c4,-1 7,-2 10,-5c3,-3 5,-6 7,-9c1,-3 2,-4 2,-2c0,1 -1,3 -2,6c-1,3 -4,7 -9,12c-5,6 -9,9 -13,9c-4,1 -7,-1 -9,-4c-2,-3 -4,-8 -5,-15c-1,-7 -3,-10 -4,-10c-1,0 -4,2 -8,5c-4,3 -8,7 -11,12c-3,5 -6,9 -8,12c-2,3 -4,5 -6,6c-2,1 -3,1 -5,-1c-1,-1 -2,-3 -2,-6c0,-2 0,-6 1,-11c0,-5 1,-10 3,-16c1,-6 1,-7 -2,-5c-3,2 -6,5 -9,10c-4,4 -2,2 4,-6c6,-8 10,-13 10,-14c1,-1 1,-3 2,-4c1,-1 2,-2 3,-3zM3331,854c9,0 14,0 17,0c3,0 7,0 14,0c7,0 11,0 14,2c2,1 3,3 1,5c-2,2 -4,3 -8,3c-3,0 -7,1 -9,1c-3,0 -5,0 -7,0c-2,0 -6,0 -13,1c-7,0 -12,1 -15,1c-3,0 -5,2 -6,3c-1,2 -3,4 -5,7c-2,3 -5,7 -8,13c-3,6 -6,12 -10,19c-3,7 -6,14 -9,20c-3,6 -4,11 -4,15c0,3 1,5 3,6c2,1 4,1 6,-1c2,-1 4,-2 6,-3c1,-1 3,-2 6,-3c3,-2 5,-4 8,-7c3,-3 3,-2 0,2c-3,4 -5,7 -6,10c-1,3 -4,6 -9,10c-4,4 -8,7 -11,7c-3,1 -6,0 -9,-1c-3,-1 -4,-4 -5,-7c-1,-4 -2,-7 -2,-10c0,-3 0,-6 1,-10c1,-4 2,-7 4,-11c2,-4 5,-11 10,-20c5,-10 9,-19 13,-27c4,-8 4,-12 0,-12c-4,1 -10,2 -18,3c-8,1 -14,2 -18,3c-4,1 -7,2 -10,3c-2,2 -5,2 -8,1c-3,-1 -5,-2 -5,-3c-1,-1 -1,-1 0,-2c0,0 2,-2 4,-4c2,-2 5,-4 7,-6c3,-2 11,-3 27,-5c15,-2 25,-2 28,-3c3,0 7,0 10,-1c4,0 10,0 18,-1zM3366,886c5,-1 9,0 10,2c1,2 2,5 3,8c0,3 -1,7 -4,9c-3,3 -7,6 -12,9c-1,1 -3,1 -4,1c-1,0 -2,0 -3,0c-1,0 -2,0 -3,0c-1,3 -2,5 -1,7c0,2 1,4 3,6c2,2 4,3 6,3c2,0 4,0 6,-1c2,-1 6,-3 11,-6c5,-3 9,-6 11,-8c1,-1 3,-3 4,-4c0,-3 0,-5 1,-7c1,-4 3,-7 6,-11c3,-4 8,-7 15,-11c8,-4 13,-5 16,-4c3,1 5,3 5,6c0,3 -2,5 -8,6c-6,1 -10,3 -14,6c-4,3 -6,7 -7,13c-1,5 1,9 4,12c4,2 7,3 10,3c3,-1 6,-1 9,-3c2,-1 5,-3 8,-5c2,-2 5,-3 7,-6c1,-5 2,-10 3,-17c3,-17 7,-33 11,-49c4,-16 7,-26 8,-29c1,-3 2,-7 5,-12c4,-1 8,-1 11,0c3,2 3,5 0,11c-3,6 -7,17 -12,34c-5,17 -8,29 -9,37c-1,7 -1,10 0,8c2,-2 3,-4 5,-6c1,-2 3,-3 5,-5c2,-2 4,-3 5,-4c2,-1 3,-2 5,-2c2,-1 4,-1 6,0c2,1 3,2 4,3c1,1 2,4 3,8c1,4 1,8 1,12c0,4 0,7 1,9c1,2 2,4 4,5c2,1 4,2 8,0c3.01,-0.75 4.89,-2.07 6.49,-3.96c-0.19,1.36 -0.3,2.61 -0.37,3.72c-0.34,0.42 -0.7,0.83 -1.12,1.24c-2,2 -4,4 -7,6c-3,2 -5,3 -7,3c-2,0 -4,0 -6,-2c-2,-1 -4,-4 -5,-7c-1,-3 -2,-8 -2,-15c0,-7 -1,-10 -3,-12c-2,-1 -5,1 -10,6c-5,5 -9,10 -11,15c-2,6 -4,10 -5,14c-1,4 -2,5 -5,5c-2,0 -4,-1 -5,-2c-1,-1 -2,-3 -2,-5c0,-1 0,-4 1,-9c-3,3 -5,6 -7,8c-3,3 -6,6 -9,8c-3,2 -5,3 -8,4c-3,1 -6,1 -10,2c-4,0 -8,-1 -12,-5c-4,-3 -6,-7 -7,-12c0,-1 0,-2 0,-3l-2,3c-2,3 -4,6 -7,9c-3,3 -5,5 -7,7c-2,2 -4,3 -8,5c-3,2 -7,2 -10,2c-3,0 -6,-1 -8,-1c-2,-1 -3,-2 -5,-3c-2,-1 -3,-3 -4,-5c-1,-2 -2,-5 -2,-8c0,-3 0,-7 1,-12c1,-4 3,-8 4,-11c2,-3 4,-6 8,-9c3,-3 7,-5 12,-7zM3515.49,910.04c0.13,-0.96 0.3,-1.98 0.51,-3.04c0,-5 1,-10 3,-16c1,-6 1,-7 -2,-5c-3,2 -6,5 -9,10c-4,4 -2,2 4,-6c6,-8 10,-13 10,-14c1,-1 1,-3 2,-4c1,-1 2,-2 3,-3l2,1c2,-1 4,-1 7,0c3,1 4,3 2,6c-1,3 -3,9 -6,16c-3,8 -3,9 0,6c2,-4 5,-7 9,-11c3,-4 6,-6 8,-7c2,-1 3,-2 5,-3c2,-1 4,-1 7,0c3,0 5,2 7,5c2,3 4,9 5,16c1,8 3,11 7,11c4,-1 7,-2 10,-5c0,-3 1,-6 1,-10c1,-7 2,-14 3,-19c1,-5 1,-8 -1,-8c-2,0 -1,-1 1,-3c3,-2 5,-4 6,-4c2,-1 4,-1 6,0c2,0 3,3 2,7c-1,4 -2,10 -3,16c-1,7 -2,12 -3,16c-1,4 -2,8 -4,11c-2,3 -3,5 -5,5c-2,0 -3,1 -4,0c-1,0 -1,-2 -1,-6v-1l-2,2c-5,6 -9,9 -13,9c-4,1 -7,-1 -9,-4c-2,-3 -4,-8 -5,-15c-1,-7 -3,-10 -4,-10c-1,0 -4,2 -8,5c-4,3 -8,7 -11,12c-3,5 -6,9 -8,12c-2,3 -4,5 -6,6c-2,1 -3,1 -5,-1c-1,-1 -2,-3 -2,-6c0,-0.98 0,-2.43 0.12,-4.24c1.3,-1.62 2.09,-3.37 2.88,-5.76c1,-2 1,-2 -1,0c-0.49,0.74 -0.99,1.42 -1.51,2.04zM3367,897c-1,-1 -2,0 -4,1c-2,1 -4,3 -4,4c-1,2 -1,3 0,3c1,1 2,0 4,-1c2,-1 4,-3 5,-4c1,-1 1,-3 0,-4zM3616,819c2,1 3,4 4,9c1,5 3,9 7,14l1,1c1,-3 3,-6 3,-8c2,-4 3,-9 5,-17c2,-8 4,-13 5,-14c2,-2 4,-2 7,-2c3,1 4,6 3,16c-1,9 -2,19 -3,28c-1,4 -1,8 0,10c1,0 2,0 2,1c4,1 3,1 0,1c-1,0 -1,0 -2,0c1,2 2,2 3,2c3,-1 6,-2 9,-5c3,-3 5,-5 8,-8c3,-3 6,-6 9,-8c3,-2 5,-2 6,1c1,3 1,5 0,7c-1,2 -5,6 -12,12c-7,6 -10,9 -10,11c1,1 1,2 2,4c1,1 3,4 6,8c3,4 8,8 13,12c5,4 8,7 8,8c0,1 -1,2 -2,3c-1,1 -3,1 -5,1c-2,1 -5,-1 -9,-3c-4,-3 -8,-6 -12,-11c-4,-4 -7,-8 -10,-10c-3,-3 -5,-4 -6,-5c-1,-1 -2,3 -4,12c-2,9 -3,15 -5,19c-1,4 -3,6 -6,6c-2,0 -4,-1 -5,-1c-1,-1 -1,-2 -1,-4c0,-2 1,-6 3,-11c2,-6 4,-16 5,-32c0,-4 1,-8 1,-11c-3,-2 -6,-4 -10,-7l-2,4c-5,9 -6,10 -2,2c1,-3 2,-5 3,-7c-4,-4 -8,-7 -10,-8c-2,-2 -4,-3 -4,-3c-1,0 -2,0 -2,0c-1,0 -2,-1 -4,-2c-2,-1 -3,-3 -3,-5c0,-2 1,-4 2,-5c1,-1 2,-2 4,-3c2,-1 4,0 6,1zM3628,844c3,3 5,5 9,7c1,-9 1,-16 1,-20c0,-6 -1,-7 -3,-2c-2,4 -4,9 -7,15z" />
		<path id="Layer" class="shp0" d="M3731,951c1,0 2,0 2,1l-5,-1c-22,0 -49,1 -80,3c-31,2 -63,6 -97,10c-34,4 -68,10 -102,15c-34,6 -66,12 -95,18c-29,6 -54,12 -75,18c-21,6 -36,11 -44,15c-3,0 -6,0 -9,-2c-3,-2 -3,-4 -2,-7c2,-3 7,-7 16,-11c9,-4 23,-9 43,-14c33,-8 68,-15 106,-21c38,-6 77,-11 115,-15c39,-4 76,-7 112,-9c36,-2 67,-3 94,-2c-27,-4 -61,-5 -102,-4c-40,1 -85,4 -133,9c-48,5 -99,11 -153,18c-53,8 -107,16 -160,25c-53,9 -105,19 -155,30c-50,11 -97,21 -139,32c-42,11 -79,21 -110,31c-31,10 -55,19 -70,27c-8,-4 -8,-9 -1,-15c7,-6 23,-13 49,-21c25,-8 61,-18 106,-29c46,-11 103,-24 173,-38c48,-10 97,-19 147,-27c50,-8 99,-15 147,-22c48,-6 94,-11 138,-15c44,-4 84,-7 120,-8c36,-1 68,-2 94,0c27,1 47,4 61,8c16,1 29,2 41,3c11,1 20,4 25,6c-13,-4 -33,-6 -58,-7z" />
		<path id="Layer" class="shp1" d="M1417,416v205h-76v-270h217v65zM1917,535c0,12 -2,23 -5,33c-4,10 -9,19 -16,27c-7,8 -15,14 -24,18c-9,4 -20,7 -31,7h-175c-10,0 -22,-4 -36,-11c-14,-7 -25,-17 -35,-28c-10,-12 -15,-24 -15,-37v-122c0,-10 4,-21 12,-32c8,-11 18,-21 30,-29c12,-8 25,-12 38,-12h248v63h-204c-8,0 -15,2 -22,6c-7,4 -12,8 -16,14c-4,6 -6,12 -6,18v60c0,9 2,17 6,24c4,7 10,12 17,16c7,4 15,6 24,6h104c7,0 13,-2 18,-6c5,-4 8,-9 8,-15c0,-6 -2,-11 -6,-15c-4,-3 -9,-5 -14,-5h-76v-63h97c1,0 6,1 15,3c9,2 18,6 28,11c10,5 18,14 25,25c7,11 11,25 11,43zM2320,620h-81v-19c-2,5 -6,9 -13,13c-6,4 -12,6 -17,6h-220c-6,0 -12,-2 -18,-5c-6,-3 -11,-7 -15,-13c-4,-6 -6,-12 -6,-19c0,-13 0,-30 0,-51c0,-20 0,-31 0,-32c0,-15 4,-27 12,-36c8,-9 18,-13 28,-13h208c10,0 18,2 25,7c7,5 12,10 15,15v-25c0,-5 -2,-10 -5,-16c-3,-5 -7,-10 -13,-13c-6,-4 -12,-5 -20,-5h-249v-66h281c12,0 23,3 34,9c11,6 20,13 28,23c8,9 14,19 19,29c4,10 7,19 7,27zM2223,534c0,0.37 -0.01,0.73 -0.03,1.08c0.02,0.31 0.03,0.61 0.03,0.92zM2219,527c-3,-3 -6,-5 -9,-7c-4,-2 -7,-3 -9,-3h-153c-7,0 -12,2 -15,7c-3,5 -4,8 -4,11c0,6 2,10 5,13c4,3 7,5 11,5h160c4,0 7,-2 12,-6c3.71,-3.71 5.7,-7.41 5.97,-11.92c-0.19,-2.69 -1.27,-5.39 -3.97,-8.08zM2565,620h-77v-205h-140v-65h217zM3193,473c0,12 -3,22 -10,30c-6,8 -17,12 -32,12h-247v13c0,7 3,13 8,19c5,6 11,9 17,9h260v64h-274c-18,0 -34,-5 -47,-14c-13,-10 -24,-21 -30,-34c-7,-13 -10,-23 -10,-31v-117c0,-9 2,-18 7,-27c5,-9 12,-17 20,-24c8,-7 17,-13 26,-17c9,-4 17,-6 25,-6h224c6,0 14,2 22,6c8,4 15,9 22,15c6,6 12,12 16,19c4,7 6,13 6,19v65zM3117,433c0,-6 -2,-10 -7,-14c-5,-4 -10,-5 -16,-5h-162c-7,0 -13,3 -19,9c-6,6 -8,13 -8,20v11h212zM3529,620h-209c-22,0 -40,-4 -54,-13c-14,-9 -25,-20 -32,-32c-7,-12 -10,-24 -10,-35v-115c0,-12 4,-24 13,-36c8,-12 18,-21 30,-28c12,-7 22,-11 29,-11h231v63h-181c-7,0 -14,2 -20,6c-7,4 -12,9 -16,15c-4,6 -6,12 -6,17v63c0,6 2,12 5,18c3,6 8,11 14,14c6,4 13,6 20,6h186zM1243,415h-140v0zM2802,415h-140zM2662,620h-76v-270v0v270z" />
		<path id="Layer" class="shp1" d="M1636,728h-67v59h67v-21h-35v-16h56v32c0,8 -2,14 -5,17c-3,3 -9,5 -18,5h-64c-9,0 -15,-2 -18,-5c-3,-3 -5,-9 -5,-17v-49c0,-8 2,-14 5,-17c3,-3 9,-5 18,-5h64c9,0 15,2 18,5c3,3 5,9 5,16v2l-21,4zM1696,804v-76h15l37,45l37,-45h15v76h-17v-52l-34,43h-4l-34,-42v51zM1834,804v-76h68c6,0 11,1 14,3c3,2 4,6 4,11v9c0,3 -1,6 -3,9c-2,2 -5,4 -10,4c4,1 8,2 10,5c2,3 4,6 4,10v10c0,5 -2,9 -6,11c-4,2 -10,4 -18,4zM1894,740h-41v18h41c3,0 5,0 7,-1c1,-1 2,-2 2,-4v-7c0,-2 -1,-3 -2,-4c-1,-1 -3,-1 -7,-1zM1894,771h-41v19h41c4,0 6,-1 7,-2c1,-1 2,-3 2,-5v-6c0,-3 -1,-4 -2,-5c-1,-1 -4,-2 -7,-2zM1959,804v-93h22v36h67v-36h22v93h-22v-40h-67v40zM2197,788h43l9,-7l-28,-23l-24,15zM2202,804c-9,0 -15,-2 -18,-5c-3,-3 -5,-9 -5,-17v-6c0,-4 1,-7 2,-9c1,-2 5,-5 9,-8l19,-11c-3,-2 -5,-5 -6,-7c-1,-2 -2,-5 -2,-7v-5c0,-6 2,-10 5,-13c3,-3 9,-4 18,-4h19c9,0 15,1 18,4c3,3 5,8 5,15v6l-17,3v-12h-30v7l44,36l22,-18l12,11l-21,18l29,25h-28l-15,-13l-8,7c-2,2 -5,4 -7,4c-2,1 -6,1 -10,1h-33zM2482,728h-58v59h58v-20l22,4v11c0,8 -2,14 -5,17c-3,3 -9,5 -18,5h-55c-9,0 -15,-2 -18,-5c-3,-3 -5,-9 -5,-17v-49c0,-8 2,-14 5,-17c3,-3 9,-5 18,-5h55c9,0 15,2 18,5c3,3 5,9 5,17v9l-22,3zM2546,733c0,-8 2,-14 5,-17c3,-3 9,-5 18,-5h68c9,0 15,2 18,5c3,3 5,9 5,17v49c0,8 -2,14 -5,17c-3,3 -9,5 -18,5h-68c-9,0 -15,-2 -18,-5c-3,-3 -5,-9 -5,-17zM2568,786h71v-59h-71zM2722,776c2,0 3,0 3,1c1,1 1,3 1,5v15c0,3 0,5 -1,5c-1,1 -3,1 -6,1h-16c-2,0 -3,0 -3,-1c-1,-1 -1,-3 -1,-5v-15c0,-3 0,-5 1,-5c1,-1 3,-1 7,-1zM2836,804v-93h22v39l51,-39h31l-61,44l69,49h-35l-56,-41v41zM3066,728h-67v59h67v-21h-35v-16h56v32c0,8 -2,14 -5,17c-3,3 -9,5 -18,5h-64c-9,0 -15,-2 -18,-5c-3,-3 -5,-9 -5,-17v-49c0,-8 2,-14 5,-17c3,-3 9,-5 18,-5h64c9,0 15,2 18,5c3,3 5,9 5,16v2l-21,4z" />
		<path id="Layer" class="shp0" d="M1320,621v-271h-217v65h140v206z" />
		<path id="Layer" class="shp0" d="M2803,416v-65h-217v270h77v-205z" />
		<path id="Layer" class="shp1" d="M884,431l-350,350l67,67c56,-21 109,-55 155,-100c87,-87 130,-202 128,-317z" />
		<path id="Layer" class="shp1" d="M756,130c-122,-122 -298,-157 -451,-104l411,410l143,-143c-21,-60 -55,-116 -103,-163z" />
	</g>
</svg>