<?xml version="1.0" encoding="UTF-8"?>
<!DOCTYPE svg PUBLIC "-//W3C//DTD SVG 1.1//EN" "http://www.w3.org/Graphics/SVG/1.1/DTD/svg11.dtd">
<!-- Creator: CorelDRAW X6 -->
<svg xmlns="http://www.w3.org/2000/svg" xml:space="preserve" width="3.79166in" height="1.125in" version="1.1" style="shape-rendering:geometricPrecision; text-rendering:geometricPrecision; image-rendering:optimizeQuality; fill-rule:evenodd; clip-rule:evenodd"
viewBox="0 0 3792 1125"
 xmlns:xlink="http://www.w3.org/1999/xlink">
 <defs>
  <style type="text/css">
   <![CDATA[
    .fil3 {fill:#727376}
    .fil0 {fill:#F47D35}
    .fil2 {fill:#727376;fill-rule:nonzero}
    .fil1 {fill:#F47D35;fill-rule:nonzero}
   ]]>
  </style>
 </defs>
 <g id="Layer_x0020_1">
  <metadata id="CorelCorpID_0Corel-Layer"/>
  <path class="fil0" d="M138 130c45,-45 98,-79 155,-100l67 67 -350 350c-2,-114 41,-230 128,-317zm330 76l-114 114 239 239 -149 149 64 64 18 18 0 0 63 63c-153,52 -329,18 -451,-104 -48,-48 -82,-104 -103,-163l143 -143 239 239 123 -123 -239 -239 140 -140 27 27zm290 541l-2 2 0 0 0 0 2 -2z"/>
  <path class="fil1" d="M2721 970c-1,-4 0,-6 3,-7 3,-1 5,-1 7,0 2,1 3,6 4,15 1,9 4,10 9,4 5,-6 9,-10 13,-12 4,-2 6,-2 8,1 2,3 3,9 3,17 0,8 0,10 2,6 1,-4 2,-8 3,-11 1,-3 2,-6 4,-9 2,-3 4,-6 7,-8 3,-2 6,-2 10,1 3,2 7,3 12,2l1 -4c1,-5 1,-8 -1,-8 -2,0 -1,-1 1,-3 3,-2 5,-4 6,-4 2,-1 4,-1 6,0 2,0 3,3 2,7 -1,3 -1,6 -2,10 5,-1 5,-1 0,1 0,2 -1,4 -1,6 -1,7 -2,12 -3,16 -1,4 -2,8 -4,11 -2,3 -3,5 -5,5 -2,0 -3,1 -4,0 -1,0 -1,-2 -1,-6 0,-3 1,-9 2,-16 1,-5 1,-10 2,-14 -2,1 -5,1 -7,1 -6,1 -10,3 -11,7 -2,4 -3,7 -3,11 -1,3 -3,8 -5,15 -3,6 -5,10 -7,12 -2,2 -3,2 -4,2 -1,-1 -3,-2 -5,-5 -2,-3 -3,-8 -4,-16 0,-7 -2,-10 -4,-9 -2,2 -6,6 -12,14 -5,8 -9,12 -11,12 -2,0 -3,-1 -5,-2 -1,-2 -1,-5 -1,-8 1,-4 1,-8 0,-12 -1,-4 -1,-7 -2,-8 -1,-2 -1,-3 -2,-5 -1,-1 -1,-4 -2,-8zm107 -60c2,1 3,4 4,9 1,5 3,9 7,14 4,4 8,8 12,10 4,2 8,4 12,5 4,1 3,1 0,1 -4,0 -7,-1 -11,-3 -4,-2 -8,-5 -13,-9 -5,-4 -8,-7 -10,-9 -2,-2 -4,-3 -4,-3 -1,0 -1,0 -2,0 -1,0 -2,-1 -4,-2 -2,-1 -3,-3 -3,-5 0,-2 1,-4 2,-5 1,-1 2,-2 4,-3 2,-1 4,0 6,1zm9 54c2,-12 4,-17 7,-18 3,0 5,1 7,3 2,2 2,5 1,8 -1,3 -1,5 0,5 1,0 3,-1 5,-3 2,-2 4,-3 6,-4 2,-1 3,-2 5,-2 1,0 4,0 7,0 4,1 7,2 10,3 3,2 7,1 12,-1 5,-2 4,-2 -1,2 -6,3 -12,5 -19,6 -6,1 -11,2 -15,4 -3,2 -6,4 -8,7 -2,2 -4,6 -6,11 -2,5 -3,9 -3,13 -1,3 -1,6 -2,8 -1,2 -2,3 -5,4 -3,0 -4,0 -6,-2 -1,-2 -1,-3 -1,-4 0,-1 1,-5 2,-12 1,-7 3,-16 4,-28zm117 -66c3,-5 5,-8 7,-7 2,1 4,2 4,3 0,2 -2,10 -8,25 -6,15 -9,29 -11,42 -2,13 -2,20 -1,21 1,1 3,2 5,1 2,-1 8,-5 18,-13 0,-1 0,-2 -1,-3 0,-3 0,-7 1,-12 1,-4 3,-8 5,-11 2,-3 4,-6 8,-9 3,-3 7,-5 12,-7 5,-1 9,0 10,2 1,2 2,5 3,8 0,3 -1,7 -4,9 -3,3 -7,6 -12,9 -1,1 -3,1 -4,1 -1,0 -2,0 -2,0l-2 2 -3 4c0,1 0,1 0,2 0,2 1,4 3,6 2,2 4,3 6,3 2,0 4,0 6,-1 2,-1 6,-3 11,-6 5,-3 9,-6 11,-8 2,-2 4,-5 6,-7 2,-2 2,-2 1,0 -1,2 -3,5 -5,8 -2,3 -4,6 -7,9 -3,3 -5,5 -7,7 -2,2 -4,3 -8,5 -3,2 -7,2 -10,2 -3,0 -6,-1 -8,-1 -2,-1 -3,-2 -5,-3 -2,-1 -3,-3 -4,-5l0 -1c-2,2 -4,5 -6,7 -2,3 -5,6 -9,9 -4,3 -7,4 -10,5 -3,1 -5,0 -7,-1 -2,-1 -3,-3 -5,-5 -1,-2 -2,-6 -2,-12 0,-6 2,-16 5,-30 3,-14 6,-24 8,-31 2,-7 5,-13 8,-18zm26 63c1,-1 2,-2 3,-3 -1,0 -1,0 -2,0 0,0 -1,0 -1,0 0,1 -1,2 -1,3zm15 -21c-1,-1 -2,0 -4,1 -2,1 -4,3 -4,4 -1,2 -1,3 0,3 1,1 2,0 4,-1 2,-1 4,-3 5,-4 1,-1 1,-3 0,-4zm57 -88c1,-1 2,-1 4,-1 2,0 4,1 6,2 2,1 2,4 0,7 -2,3 -4,8 -7,14 -2,6 -5,14 -8,24 -3,10 -4,16 -3,19 1,3 3,5 5,6 2,2 6,2 11,1 5,-1 14,-2 27,-4 6,-1 10,-2 10,-2 1,-1 3,-1 4,-2 5,-1 9,0 10,2 1,2 2,5 3,8 0,3 -1,7 -4,9 -3,3 -7,6 -12,9 -1,1 -3,1 -4,1 -1,0 -2,0 -3,0 -1,0 -1,0 -2,0 0,0 -1,0 -1,0 -1,3 -2,5 -1,7 0,2 1,4 3,6 2,2 4,3 6,3 2,0 4,0 6,-1 2,-1 6,-3 11,-6 5,-3 9,-6 11,-8 2,-2 4,-5 6,-7 2,-2 2,-2 1,0 -1,2 -3,5 -5,8 -2,3 -4,6 -7,9 -3,3 -5,5 -7,7 -2,2 -4,3 -8,5 -3,2 -7,2 -10,2 -3,0 -6,-1 -8,-1 -2,-1 -3,-2 -5,-3 -2,-1 -3,-3 -4,-5 -1,-2 -2,-5 -2,-8 0,-3 0,-7 1,-12 1,-4 3,-8 4,-11 2,-3 4,-6 8,-9 2,-2 5,-4 7,-5 -1,0 -3,1 -7,2 -11,2 -19,4 -25,6 -5,2 -7,5 -5,9 2,5 4,8 4,10 1,2 1,5 1,8 0,3 -1,6 -3,9 -2,3 -4,6 -6,9 -2,3 -4,4 -7,5 -2,1 -5,1 -8,1 -3,0 -6,-2 -8,-4 -2,-2 -4,-5 -6,-10 -2,-4 -2,-9 -3,-13 0,-4 1,-12 3,-22 3,-10 5,-18 7,-24 2,-6 5,-15 8,-27 3,-12 5,-18 6,-20 1,-2 2,-4 3,-6zm-7 86c-3,-3 -5,-2 -6,0 -2,3 -2,6 -2,9 0,3 0,5 1,8 0,2 1,5 3,7 2,2 3,3 6,3 2,0 4,-1 5,-3 1,-2 2,-4 3,-7 0,-3 0,-5 -2,-8 -2,-3 -4,-6 -6,-8zm57 -10c-1,-1 -2,0 -4,1 -2,1 -4,3 -4,4 -1,2 -1,3 0,3 1,1 2,0 4,-1 2,-1 4,-3 5,-4 1,-1 1,-3 0,-4zm39 -13c2,-1 4,-1 7,0 3,1 4,3 2,6 -1,3 -3,9 -6,16 -3,7 -3,9 0,6 2,-4 5,-7 9,-11 3,-4 6,-6 8,-7 2,-1 3,-2 5,-3 2,-1 4,-1 7,0 3,0 5,2 7,5 2,3 4,9 5,16 1,8 3,11 7,11 4,-1 7,-2 10,-5 3,-3 5,-6 7,-9 1,-3 2,-4 2,-2 0,1 -1,3 -2,6 -1,3 -4,7 -9,12 -5,6 -9,9 -13,9 -4,1 -7,-1 -9,-4 -2,-3 -4,-8 -5,-15 -1,-7 -3,-10 -4,-10 -1,0 -4,2 -8,5 -4,3 -8,7 -11,12 -3,5 -6,9 -8,12 -2,3 -4,5 -6,6 -2,1 -3,1 -5,-1 -1,-1 -2,-3 -2,-6 0,-2 0,-6 1,-11 0,-5 1,-10 3,-16 1,-6 1,-7 -2,-5 -3,2 -6,5 -9,10 -4,4 -2,2 4,-6 6,-8 10,-13 10,-14 1,-1 1,-3 2,-4 1,-1 2,-2 3,-3zm190 -61c9,0 14,0 17,0 3,0 7,0 14,0 7,0 11,0 14,2 2,1 3,3 1,5 -2,2 -4,3 -8,3 -3,0 -7,1 -9,1 -3,0 -5,0 -7,0 -2,0 -6,0 -13,1 -7,0 -12,1 -15,1 -3,0 -5,2 -6,3 -1,2 -3,4 -5,7 -2,3 -5,7 -8,13 -3,6 -6,12 -10,19 -3,7 -6,14 -9,20 -3,6 -4,11 -4,15 0,3 1,5 3,6 2,1 4,1 6,-1 2,-1 4,-2 6,-3 1,-1 3,-2 6,-3 3,-2 5,-4 8,-7 3,-3 3,-2 0,2 -3,4 -5,7 -6,10 -1,3 -4,6 -9,10 -4,4 -8,7 -11,7 -3,1 -6,0 -9,-1 -3,-1 -4,-4 -5,-7 -1,-4 -2,-7 -2,-10 0,-3 0,-6 1,-10 1,-4 2,-7 4,-11 2,-4 5,-11 10,-20 5,-10 9,-19 13,-27 4,-8 4,-12 0,-12 -4,1 -10,2 -18,3 -8,1 -14,2 -18,3 -4,1 -7,2 -10,3 -2,2 -5,2 -8,1 -3,-1 -5,-2 -5,-3 -1,-1 -1,-1 0,-2 0,0 2,-2 4,-4 2,-2 5,-4 7,-6 3,-2 11,-3 27,-5 15,-2 25,-2 28,-3 3,0 7,0 10,-1 4,0 10,0 18,-1zm35 32c5,-1 9,0 10,2 1,2 2,5 3,8 0,3 -1,7 -4,9 -3,3 -7,6 -12,9 -1,1 -3,1 -4,1 -1,0 -2,0 -3,0 -1,0 -1,0 -2,0 0,0 -1,0 -1,0 -1,3 -2,5 -1,7 0,2 1,4 3,6 2,2 4,3 6,3 2,0 4,0 6,-1 2,-1 6,-3 11,-6 5,-3 9,-6 11,-8 1,-1 3,-3 4,-4 0,-3 0,-5 1,-7 1,-4 3,-7 6,-11 3,-4 8,-7 15,-11 8,-4 13,-5 16,-4 3,1 5,3 5,6 0,3 -2,5 -8,6 -6,1 -10,3 -14,6 -4,3 -6,7 -7,13 -1,5 1,9 4,12 4,2 7,3 10,3 3,-1 6,-1 9,-3 2,-1 5,-3 8,-5 2,-2 5,-3 7,-6 1,-5 2,-10 3,-17 3,-17 7,-33 11,-49 4,-16 7,-26 8,-29 1,-3 2,-7 5,-12 4,-1 8,-1 11,0 3,2 3,5 0,11 -3,6 -7,17 -12,34 -5,17 -8,29 -9,37 -1,7 -1,10 0,8 2,-2 3,-4 5,-6 1,-2 3,-3 5,-5 2,-2 4,-3 5,-4 2,-1 3,-2 5,-2 2,-1 4,-1 6,0 2,1 3,2 4,3 1,1 2,4 3,8 1,4 1,8 1,12 0,4 0,7 1,9 1,2 2,4 4,5 2,1 4,2 8,0 4,-1 6,-3 8,-6 2,-2 2,-2 1,0 -1,3 -2,5 -4,7 -2,2 -4,4 -7,6 -3,2 -5,3 -7,3 -2,0 -4,0 -6,-2 -2,-1 -4,-4 -5,-7 -1,-3 -2,-8 -2,-15 0,-7 -1,-10 -3,-12 -2,-1 -5,1 -10,6 -5,5 -9,10 -11,15 -2,6 -4,10 -5,14 -1,4 -2,5 -5,5 -2,0 -4,-1 -5,-2 -1,-1 -2,-3 -2,-5 0,-1 0,-4 1,-9 -3,3 -5,6 -7,8 -3,3 -6,6 -9,8 -3,2 -5,3 -8,4 -3,1 -6,1 -10,2 -4,0 -8,-1 -12,-5 -4,-3 -6,-7 -7,-12 0,-1 0,-2 0,-3l-2 3c-2,3 -4,6 -7,9 -3,3 -5,5 -7,7 -2,2 -4,3 -8,5 -3,2 -7,2 -10,2 -3,0 -6,-1 -8,-1 -2,-1 -3,-2 -5,-3 -2,-1 -3,-3 -4,-5 -1,-2 -2,-5 -2,-8 0,-3 0,-7 1,-12 1,-4 3,-8 4,-11 2,-3 4,-6 8,-9 3,-3 7,-5 12,-7zm1 11c-1,-1 -2,0 -4,1 -2,1 -4,3 -4,4 -1,2 -1,3 0,3 1,1 2,0 4,-1 2,-1 4,-3 5,-4 1,-1 1,-3 0,-4zm162 -27c2,-1 4,-1 7,0 3,1 4,3 2,6 -1,3 -3,9 -6,16 -3,8 -3,9 0,6 2,-4 5,-7 9,-11 3,-4 6,-6 8,-7 2,-1 3,-2 5,-3 2,-1 4,-1 7,0 3,0 5,2 7,5 2,3 4,9 5,16 1,8 3,11 7,11 4,-1 7,-2 10,-5l0 0c0,-3 1,-6 1,-10 1,-7 2,-14 3,-19 1,-5 1,-8 -1,-8 -2,0 -1,-1 1,-3 3,-2 5,-4 6,-4 2,-1 4,-1 6,0 2,0 3,3 2,7 -1,4 -2,10 -3,16 -1,7 -2,12 -3,16 -1,4 -2,8 -4,11 -2,3 -3,5 -5,5 -2,0 -3,1 -4,0 -1,0 -1,-2 -1,-6l0 -1 -2 2c-5,6 -9,9 -13,9 -4,1 -7,-1 -9,-4 -2,-3 -4,-8 -5,-15 -1,-7 -3,-10 -4,-10 -1,0 -4,2 -8,5 -4,3 -8,7 -11,12 -3,5 -6,9 -8,12 -2,3 -4,5 -6,6 -2,1 -3,1 -5,-1 -1,-1 -2,-3 -2,-6 0,-2 0,-6 1,-11 0,-5 1,-10 3,-16 1,-6 1,-7 -2,-5 -3,2 -6,5 -9,10 -4,4 -2,2 4,-6 6,-8 10,-13 10,-14 1,-1 1,-3 2,-4 1,-1 2,-2 3,-3zm87 -51c2,1 3,4 4,9 1,5 3,9 7,14l1 1c1,-3 3,-6 3,-8 2,-4 3,-9 5,-17 2,-8 4,-13 5,-14 2,-2 4,-2 7,-2 3,1 4,6 3,16 -1,9 -2,19 -3,28 -1,4 -1,8 0,10 1,0 2,0 2,1 4,1 3,1 0,1 -1,0 -1,0 -2,0 1,2 2,2 3,2 3,-1 6,-2 9,-5 3,-3 5,-5 8,-8 3,-3 6,-6 9,-8 3,-2 5,-2 6,1 1,3 1,5 0,7 -1,2 -5,6 -12,12 -7,6 -10,9 -10,11 1,1 1,2 2,4 1,1 3,4 6,8 3,4 8,8 13,12 5,4 8,7 8,8 0,1 -1,2 -2,3 -1,1 -3,1 -5,1 -2,1 -5,-1 -9,-3 -4,-3 -8,-6 -12,-11 -4,-4 -7,-8 -10,-10 -3,-3 -5,-4 -6,-5 -1,-1 -2,3 -4,12 -2,9 -3,15 -5,19 -1,4 -3,6 -6,6 -2,0 -4,-1 -5,-1 -1,-1 -1,-2 -1,-4 0,-2 1,-6 3,-11 2,-6 4,-16 5,-32 0,-4 1,-8 1,-11 -3,-2 -6,-4 -10,-7l-2 4c-5,9 -6,10 -2,2 1,-3 2,-5 3,-7 -4,-4 -8,-7 -10,-8 -2,-2 -4,-3 -4,-3 -1,0 -2,0 -2,0 -1,0 -2,-1 -4,-2 -2,-1 -3,-3 -3,-5 0,-2 1,-4 2,-5 1,-1 2,-2 4,-3 2,-1 4,0 6,1zm12 25c3,3 5,5 9,7 1,-9 1,-16 1,-20 0,-6 -1,-7 -3,-2 -2,4 -4,9 -7,15z"/>
  <path class="fil1" d="M3731 951c1,0 2,0 2,1l-5 -1c-22,0 -49,1 -80,3 -31,2 -63,6 -97,10 -34,4 -68,10 -102,15 -34,6 -66,12 -95,18 -29,6 -54,12 -75,18 -21,6 -36,11 -44,15 -3,0 -6,0 -9,-2 -3,-2 -3,-4 -2,-7 2,-3 7,-7 16,-11 9,-4 23,-9 43,-14 33,-8 68,-15 106,-21 38,-6 77,-11 115,-15 39,-4 76,-7 112,-9 36,-2 67,-3 94,-2 -27,-4 -61,-5 -102,-4 -40,1 -85,4 -133,9 -48,5 -99,11 -153,18 -53,8 -107,16 -160,25 -53,9 -105,19 -155,30 -50,11 -97,21 -139,32 -42,11 -79,21 -110,31 -31,10 -55,19 -70,27 -8,-4 -8,-9 -1,-15 7,-6 23,-13 49,-21 25,-8 61,-18 106,-29 46,-11 103,-24 173,-38 48,-10 97,-19 147,-27 50,-8 99,-15 147,-22 48,-6 94,-11 138,-15 44,-4 84,-7 120,-8 36,-1 68,-2 94,0 27,1 47,4 61,8 16,1 29,2 41,3 11,1 20,4 25,6 -13,-4 -33,-6 -58,-7z"/>
  <path class="fil2" d="M1557 416l-140 0 0 205 -76 0 0 -270 217 0 0 65zm-314 -1l-140 0 0 0 140 0 0 0zm674 120c0,12 -2,23 -5,33 -4,10 -9,19 -16,27 -7,8 -15,14 -24,18 -9,4 -20,7 -31,7l-175 0c-10,0 -22,-4 -36,-11 -14,-7 -25,-17 -35,-28 -10,-12 -15,-24 -15,-37l0 -122c0,-10 4,-21 12,-32 8,-11 18,-21 30,-29 12,-8 25,-12 38,-12l248 0 0 63 -204 0c-8,0 -15,2 -22,6 -7,4 -12,8 -16,14 -4,6 -6,12 -6,18l0 60c0,9 2,17 6,24 4,7 10,12 17,16 7,4 15,6 24,6l104 0c7,0 13,-2 18,-6 5,-4 8,-9 8,-15 0,-6 -2,-11 -6,-15 -4,-3 -9,-5 -14,-5l-76 0 0 -63 97 0c1,0 6,1 15,3 9,2 18,6 28,11 10,5 18,14 25,25 7,11 11,25 11,43zm403 85l-81 0 0 -19c-2,5 -6,9 -13,13 -6,4 -12,6 -17,6l-220 0c-6,0 -12,-2 -18,-5 -6,-3 -11,-7 -15,-13 -4,-6 -6,-12 -6,-19 0,-13 0,-30 0,-51 0,-20 0,-31 0,-32 0,-15 4,-27 12,-36 8,-9 18,-13 28,-13l208 0c10,0 18,2 25,7 7,5 12,10 15,15l0 -25c0,-5 -2,-10 -5,-16 -3,-5 -7,-10 -13,-13 -6,-4 -12,-5 -20,-5l-249 0 0 -66 281 0c12,0 23,3 34,9 11,6 20,13 28,23 8,9 14,19 19,29 4,10 7,19 7,27l0 184zm-97 -84c0,-3 -1,-6 -4,-9 -3,-3 -6,-5 -9,-7 -4,-2 -7,-3 -9,-3l-153 0c-7,0 -12,2 -15,7 -3,5 -4,8 -4,11 0,6 2,10 5,13 4,3 7,5 11,5l160 0c4,0 7,-2 12,-6 4,-4 6,-8 6,-13zm579 -121l-140 0 140 0 0 0zm-140 205l-76 0 0 -270 0 0 0 270 76 0zm-97 0l-77 0 0 -205 -140 0 0 -65 217 0 0 270zm628 -147c0,12 -3,22 -10,30 -6,8 -17,12 -32,12l-247 0 0 13c0,7 3,13 8,19 5,6 11,9 17,9l260 0 0 64 -274 0c-18,0 -34,-5 -47,-14 -13,-10 -24,-21 -30,-34 -7,-13 -10,-23 -10,-31l0 -117c0,-9 2,-18 7,-27 5,-9 12,-17 20,-24 8,-7 17,-13 26,-17 9,-4 17,-6 25,-6l224 0c6,0 14,2 22,6 8,4 15,9 22,15 6,6 12,12 16,19 4,7 6,13 6,19l0 65zm-76 -40c0,-6 -2,-10 -7,-14 -5,-4 -10,-5 -16,-5l-162 0c-7,0 -13,3 -19,9 -6,6 -8,13 -8,20l0 11 212 0 0 -20zm412 187l-209 0c-22,0 -40,-4 -54,-13 -14,-9 -25,-20 -32,-32 -7,-12 -10,-24 -10,-35l0 -115c0,-12 4,-24 13,-36 8,-12 18,-21 30,-28 12,-7 22,-11 29,-11l231 0 0 63 -181 0c-7,0 -14,2 -20,6 -7,4 -12,9 -16,15 -4,6 -6,12 -6,17l0 63c0,6 2,12 5,18 3,6 8,11 14,14 6,4 13,6 20,6l186 0 0 67z"/>
  <path class="fil2" d="M1636 728l-67 0 0 59 67 0 0 -21 -35 0 0 -16 56 0 0 32c0,8 -2,14 -5,17 -3,3 -9,5 -18,5l-64 0c-9,0 -15,-2 -18,-5 -3,-3 -5,-9 -5,-17l0 -49c0,-8 2,-14 5,-17 3,-3 9,-5 18,-5l64 0c9,0 15,2 18,5 3,3 5,9 5,16l0 2 -21 4 0 -10zm60 76l0 -76 15 0 37 45 37 -45 15 0 0 76 -17 0 0 -52 -34 43 -4 0 -34 -42 0 51 -15 0zm138 0l0 -76 68 0c6,0 11,1 14,3 3,2 4,6 4,11l0 9c0,3 -1,6 -3,9 -2,2 -5,4 -10,4 4,1 8,2 10,5 2,3 4,6 4,10l0 10c0,5 -2,9 -6,11 -4,2 -10,4 -18,4l-63 0zm60 -64l-41 0 0 18 41 0c3,0 5,0 7,-1 1,-1 2,-2 2,-4l0 -7c0,-2 -1,-3 -2,-4 -1,-1 -3,-1 -7,-1zm0 31l-41 0 0 19 41 0c4,0 6,-1 7,-2 1,-1 2,-3 2,-5l0 -6c0,-3 -1,-4 -2,-5 -1,-1 -4,-2 -7,-2zm65 33l0 -93 22 0 0 36 67 0 0 -36 22 0 0 93 -22 0 0 -40 -67 0 0 40 -22 0zm238 -16l43 0 9 -7 -28 -23 -24 15 0 16zm5 16c-9,0 -15,-2 -18,-5 -3,-3 -5,-9 -5,-17l0 -6c0,-4 1,-7 2,-9 1,-2 5,-5 9,-8l19 -11c-3,-2 -5,-5 -6,-7 -1,-2 -2,-5 -2,-7l0 -5c0,-6 2,-10 5,-13 3,-3 9,-4 18,-4l19 0c9,0 15,1 18,4 3,3 5,8 5,15l0 6 -17 3 0 -12 -30 0 0 7 44 36 22 -18 12 11 -21 18 29 25 -28 0 -15 -13 -8 7c-2,2 -5,4 -7,4 -2,1 -6,1 -10,1l-33 0zm280 -76l-58 0 0 59 58 0 0 -20 22 4 0 11c0,8 -2,14 -5,17 -3,3 -9,5 -18,5l-55 0c-9,0 -15,-2 -18,-5 -3,-3 -5,-9 -5,-17l0 -49c0,-8 2,-14 5,-17 3,-3 9,-5 18,-5l55 0c9,0 15,2 18,5 3,3 5,9 5,17l0 9 -22 3 0 -18zm64 5c0,-8 2,-14 5,-17 3,-3 9,-5 18,-5l68 0c9,0 15,2 18,5 3,3 5,9 5,17l0 49c0,8 -2,14 -5,17 -3,3 -9,5 -18,5l-68 0c-9,0 -15,-2 -18,-5 -3,-3 -5,-9 -5,-17l0 -49zm22 53l71 0 0 -59 -71 0 0 59zm151 -10l3 0c2,0 3,0 3,1 1,1 1,3 1,5l0 15c0,3 0,5 -1,5 -1,1 -3,1 -6,1l-16 0c-2,0 -3,0 -3,-1 -1,-1 -1,-3 -1,-5l0 -15c0,-3 0,-5 1,-5 1,-1 3,-1 7,-1l13 0zm117 28l0 -93 22 0 0 39 51 -39 31 0 -61 44 69 49 -35 0 -56 -41 0 41 -22 0zm230 -76l-67 0 0 59 67 0 0 -21 -35 0 0 -16 56 0 0 32c0,8 -2,14 -5,17 -3,3 -9,5 -18,5l-64 0c-9,0 -15,-2 -18,-5 -3,-3 -5,-9 -5,-17l0 -49c0,-8 2,-14 5,-17 3,-3 9,-5 18,-5l64 0c9,0 15,2 18,5 3,3 5,9 5,16l0 2 -21 4 0 -10z"/>
  <polygon class="fil0" points="1320,621 1320,350 1103,350 1103,415 1243,415 1243,621 "/>
  <polygon class="fil0" points="2803,416 2803,351 2586,351 2586,621 2663,621 2663,416 "/>
  <path class="fil3" d="M884 431l-350 350 67 67c56,-21 109,-55 155,-100 87,-87 130,-202 128,-317z"/>
  <path class="fil3" d="M756 130c-122,-122 -298,-157 -451,-104l411 410 143 -143c-21,-60 -55,-116 -103,-163z"/>
 </g>
</svg>
